<svg width="100" height="100" viewBox="0 0 100 100" fill="none" xmlns="http://www.w3.org/2000/svg">
<path d="M49.9997 8.33325C26.9997 8.33325 8.33301 26.9999 8.33301 49.9999C8.33301 72.9999 26.9997 91.6666 49.9997 91.6666C72.9997 91.6666 91.6663 72.9999 91.6663 49.9999C91.6663 26.9999 72.9997 8.33325 49.9997 8.33325ZM45.833 83.0416C29.3747 80.9999 16.6663 66.9999 16.6663 49.9999C16.6663 47.4166 16.9997 44.9583 17.5413 42.5416L37.4997 62.4999V66.6666C37.4997 71.2499 41.2497 74.9999 45.833 74.9999V83.0416ZM74.583 72.4582C73.4997 69.0832 70.4163 66.6666 66.6663 66.6666H62.4997V54.1666C62.4997 51.8749 60.6247 49.9999 58.333 49.9999H33.333V41.6666H41.6663C43.958 41.6666 45.833 39.7916 45.833 37.4999V29.1666H54.1663C58.7497 29.1666 62.4997 25.4166 62.4997 20.8333V19.1249C74.708 24.0833 83.333 36.0416 83.333 49.9999C83.333 58.6666 79.9997 66.5416 74.583 72.4582Z" fill="#2B61D1"/>
</svg>
