<svg width="396" height="123" viewBox="0 0 396 123" fill="none" xmlns="http://www.w3.org/2000/svg">
<path d="M61.9064 0.000175476C96.0966 0.000175476 123.813 27.5193 123.813 61.4642C123.813 95.4111 96.0966 122.93 61.9064 122.93C27.7162 122.93 0 95.4111 0 61.4642C0 27.5193 27.7162 0.000175476 61.9064 0.000175476Z" fill="#2B61D1"/>
<path d="M69.1432 97.1309L62.1032 101.197L46.9771 92.4671L53.8451 88.5012L54.0171 88.3992L54.2811 88.5492L69.1432 97.1309Z" fill="white"/>
<path d="M96.1719 42.1924V50.3781L81.2838 41.7824L77.2457 39.4505L73.2077 41.7824L54.2816 52.71L50.2435 55.042V59.8618L42.9595 55.656L38.9215 53.324L34.8854 55.656L28.0354 59.6078V42.1924L62.1036 22.525L96.1719 42.1924Z" fill="white"/>
<path d="M96.1711 59.7064V81.5597L77.245 92.4854L77.219 92.4714L58.3169 81.5597V59.7064L77.245 48.7728L96.1711 59.7064Z" fill="white"/>
<path d="M49.8095 68.9371V81.5027L38.9235 87.7925L28.0354 81.5027V68.9371L38.9235 62.6533L49.8095 68.9371Z" fill="white"/>
<path d="M171.345 37.3368V58.4161H209.873V73.2237H171.345V102.283H152.081V22.5233H214.983V37.3368H171.345Z" fill="#303B52"/>
<path d="M223.425 22.5231H241.971V102.284H223.425V22.5231Z" fill="#303B52"/>
<path d="M320.879 38.3041V102.284H303.281V94.6663C298.405 100.256 291.273 103.228 283.423 103.228C267.369 103.228 256.073 94.1903 256.073 74.453V38.3041H274.625V71.7171C274.625 82.4207 279.377 87.1765 287.583 87.1765C296.143 87.1765 302.325 81.7087 302.325 69.9311V38.3041H320.879Z" fill="#303B52"/>
<path d="M374.404 102.284L360.372 82.6588L345.884 102.284H325.646L350.258 70.0492L326.482 38.3043H347.29L360.872 56.9737L374.784 38.3043H394.526L370.74 69.5752L395.45 102.284H374.404Z" fill="#303B52"/>
</svg>
