<svg width="100" height="100" viewBox="0 0 100 100" fill="none" xmlns="http://www.w3.org/2000/svg">
<path d="M67.6663 32.3334C62.7913 27.4584 56.4163 25 49.9997 25V50L32.333 67.6667C42.083 77.4167 57.9163 77.4167 67.708 67.6667C77.458 57.9167 77.458 42.0834 67.6663 32.3334ZM49.9997 8.33337C26.9997 8.33337 8.33301 27 8.33301 50C8.33301 73 26.9997 91.6667 49.9997 91.6667C72.9997 91.6667 91.6663 73 91.6663 50C91.6663 27 72.9997 8.33337 49.9997 8.33337ZM49.9997 83.3334C31.583 83.3334 16.6663 68.4167 16.6663 50C16.6663 31.5834 31.583 16.6667 49.9997 16.6667C68.4163 16.6667 83.333 31.5834 83.333 50C83.333 68.4167 68.4163 83.3334 49.9997 83.3334Z" fill="#2B61D1"/>
</svg>
