<svg width="424" height="65" viewBox="0 0 424 65" fill="none" xmlns="http://www.w3.org/2000/svg">
<path d="M298.497 42.9457H289.807V64.4224H353.617V55.7243H298.499L298.497 42.9457Z" fill="#303B52"/>
<path d="M0 0.509033H8.55031V63.7544H0V0.509033Z" fill="#303B52"/>
<path d="M64.8589 0.375385H53.2795L24.7407 27.9136H13.6814V36.7605H25.2856L53.2795 63.7708H64.8566L32.7494 32.7793V31.3477L64.8589 0.375385Z" fill="#303B52"/>
<path d="M177.801 0.244316H145.436V9.05744H177.801C190.469 9.25148 200.58 19.6779 200.386 32.3459C200.198 44.7409 190.196 54.7442 177.801 54.9349H153.988V18.6072H145.437V63.7502H177.801C195.333 63.2922 209.176 48.7086 208.72 31.176C208.282 14.2842 194.694 0.693321 177.801 0.252216V0.244316Z" fill="#303B52"/>
<path d="M249.824 0.244316H217.461V9.05744H249.824C262.492 9.25148 272.604 19.6779 272.409 32.3459C272.221 44.7409 262.219 54.7442 249.824 54.9349H226.01V18.6072H217.459V63.7502H249.824C267.357 63.2922 281.199 48.7086 280.742 31.176C280.305 14.283 266.717 0.691067 249.824 0.252216V0.244316Z" fill="#303B52"/>
<path d="M291.789 0.772846H289.818V36.3491H325.209V27.6511H298.502V9.46752H353.605V0.770592H291.783L291.789 0.772846Z" fill="#303B52"/>
<path d="M370.327 0.509296H358.619L385.063 31.7952L357.83 64.0164H369.538L390.916 38.7232L412.292 64.0164H424L370.327 0.509296Z" fill="#303B52"/>
<path d="M423.217 0.508904H411.509L392.707 22.7459L398.562 29.6716L423.217 0.508904Z" fill="#303B52"/>
<path d="M127.954 56.0004H92.3457V63.7756H141.021" fill="#FEA405"/>
<path d="M100.308 0.207024L109.585 0.0761566L109.51 0.2262L141.019 63.7197L127.95 55.9445L104.911 9.49171L100.308 0.207024Z" fill="#09FCFB"/>
<path d="M109.51 0.233269L109.585 0.0832253H100.244L100.309 0.214092L68.8032 63.7087H78.0123L104.912 9.50443L109.51 0.233269Z" fill="#FE01B6"/>
</svg>
