<svg width="385" height="126" viewBox="0 0 385 126" fill="none" xmlns="http://www.w3.org/2000/svg">
<g clip-path="url(#clip0_406_303)">
<path d="M166.902 123.476H135.732L155.228 2.76855H186.396L166.902 123.476Z" fill="#00579F"/>
<path d="M279.897 5.71958C273.748 3.27722 263.997 0.580566 251.939 0.580566C221.158 0.580566 199.482 17.0165 199.349 40.515C199.093 57.8521 214.868 67.4815 226.667 73.2623C238.726 79.1693 242.825 83.0248 242.825 88.2901C242.703 96.3767 233.081 100.104 224.107 100.104C211.662 100.104 204.994 98.1824 194.861 93.6835L190.756 91.7548L186.395 118.851C193.705 122.186 207.174 125.146 221.158 125.275C253.864 125.275 275.156 109.094 275.409 84.0523C275.533 70.3113 267.203 59.7824 249.245 51.1787C238.343 45.6557 231.666 41.9316 231.666 36.2805C231.794 31.1432 237.313 25.8813 249.62 25.8813C259.753 25.6236 267.198 28.0626 272.838 30.5032L275.658 31.785L279.897 5.71958Z" fill="#00579F"/>
<path d="M321.325 80.7138C323.892 73.7793 333.769 46.9408 333.769 46.9408C333.64 47.1985 336.331 39.8783 337.87 35.3844L340.048 45.7853C340.048 45.7853 345.951 74.6788 347.233 80.7138C342.361 80.7138 327.481 80.7138 321.325 80.7138ZM359.8 2.76855H335.69C328.255 2.76855 322.606 4.94977 319.398 12.7837L273.099 123.475H305.805C305.805 123.475 311.19 108.576 312.347 105.368C315.935 105.368 347.751 105.368 352.367 105.368C353.262 109.606 356.086 123.475 356.086 123.475H384.947L359.8 2.76855Z" fill="#00579F"/>
<path d="M109.697 2.76855L79.1713 85.0797L75.8356 68.386C70.192 49.1237 52.4925 28.1956 32.7407 17.7896L60.7013 123.348H93.663L142.657 2.76855H109.697Z" fill="#00579F"/>
<path d="M50.8255 2.76855H0.67565L0.162598 5.20749C39.2826 15.2244 65.191 39.3697 75.8356 68.3912L64.9336 12.9151C63.1388 5.20578 57.623 3.02286 50.8255 2.76855Z" fill="#FAA61A"/>
</g>
<defs>
<clipPath id="clip0_406_303">
<rect width="384.784" height="124.695" fill="white" transform="translate(0.162598 0.580566)"/>
</clipPath>
</defs>
</svg>
