<svg width="487" height="152" viewBox="0 0 487 152" fill="none" xmlns="http://www.w3.org/2000/svg">
<path d="M76.1495 -0.000228882C118.206 -0.000228882 152.299 33.8516 152.299 75.608C152.299 117.367 118.206 151.219 76.1495 151.219C34.093 151.219 0 117.367 0 75.608C0 33.8516 34.093 -0.000228882 76.1495 -0.000228882Z" fill="#2B61D1"/>
<path d="M85.0512 119.482L76.3914 124.484L57.7852 113.745L66.2334 108.867L66.4449 108.741L66.7697 108.926L85.0512 119.482Z" fill="white"/>
<path d="M118.299 51.9017V61.9711L99.985 51.3973L95.018 48.5288L90.0509 51.3973L66.7703 64.8397L61.8033 67.7082V73.6372L52.8433 68.4635L47.8763 65.5949L42.9117 68.4635L34.4856 73.3248V51.9017L76.392 27.7084L118.299 51.9017Z" fill="white"/>
<path d="M118.298 73.4465V100.329L95.0171 113.769L94.9852 113.751L71.7341 100.329V73.4465L95.0171 59.9967L118.298 73.4465Z" fill="white"/>
<path d="M61.2694 84.8007V100.258L47.8787 107.995L34.4856 100.258V84.8007L47.8787 77.0708L61.2694 84.8007Z" fill="white"/>
<path d="M210.768 45.9279V71.8581H258.16V90.0731H210.768V125.819H187.071V27.7055H264.446V45.9279H210.768Z" fill="#2B61D1"/>
<path d="M274.83 27.7064H297.643V125.822H274.83V27.7064Z" fill="#2B61D1"/>
<path d="M394.705 47.1181V125.821H373.059V116.45C367.061 123.327 358.288 126.982 348.632 126.982C328.884 126.982 314.989 115.865 314.989 91.5856V47.1181H337.809V88.2201C337.809 101.387 343.655 107.237 353.749 107.237C364.278 107.237 371.883 100.511 371.883 86.0231V47.1181H394.705Z" fill="#2B61D1"/>
<path d="M460.545 125.822L443.284 101.681L425.463 125.822H400.568L430.843 86.1693L401.597 47.1191H427.192L443.899 70.0848L461.012 47.1191H485.296L456.038 85.5863L486.433 125.822H460.545Z" fill="#2B61D1"/>
</svg>
