<svg width="396" height="123" viewBox="0 0 396 123" fill="none" xmlns="http://www.w3.org/2000/svg">
<path d="M61.906 -0.000419617C96.096 -0.000419617 123.812 27.5196 123.812 61.4656C123.812 95.4136 96.096 122.934 61.906 122.934C27.716 122.934 0 95.4136 0 61.4656C0 27.5196 27.716 -0.000419617 61.906 -0.000419617Z" fill="#2B61D1"/>
<path d="M69.1426 97.1332L62.1026 101.199L46.9766 92.4692L53.8446 88.5032L54.0166 88.4012L54.2806 88.5512L69.1426 97.1332Z" fill="white"/>
<path d="M96.1712 42.1933V50.3793L81.2832 41.7833L77.2452 39.4513L73.2072 41.7833L54.2812 52.7113L50.2432 55.0433V59.8633L42.9592 55.6573L38.9212 53.3253L34.8852 55.6573L28.0352 59.6093V42.1933L62.1032 22.5253L96.1712 42.1933Z" fill="white"/>
<path d="M96.1704 59.7083V81.5623L77.2444 92.4883L77.2184 92.4743L58.3164 81.5623V59.7083L77.2444 48.7743L96.1704 59.7083Z" fill="white"/>
<path d="M49.8092 68.9389V81.5049L38.9232 87.7949L28.0352 81.5049V68.9389L38.9232 62.6549L49.8092 68.9389Z" fill="white"/>
<path d="M171.344 37.3372V58.4172H209.872V73.2252H171.344V102.285H152.08V22.5232H214.982V37.3372H171.344Z" fill="white"/>
<path d="M223.424 22.5234H241.97V102.287H223.424V22.5234Z" fill="white"/>
<path d="M320.877 38.3045V102.286H303.279V94.6685C298.403 100.258 291.271 103.23 283.421 103.23C267.367 103.23 256.071 94.1925 256.071 74.4545V38.3045H274.623V71.7185C274.623 82.4225 279.375 87.1785 287.581 87.1785C296.141 87.1785 302.323 81.7105 302.323 69.9325V38.3045H320.877Z" fill="white"/>
<path d="M374.401 102.287L360.369 82.6611L345.881 102.287H325.643L350.255 70.0511L326.479 38.3051H347.287L360.869 56.9751L374.781 38.3051H394.523L370.737 69.5771L395.447 102.287H374.401Z" fill="white"/>
</svg>
