<svg width="236" height="149" viewBox="0 0 236 149" fill="none" xmlns="http://www.w3.org/2000/svg">
<path d="M46.9729 0.645996H105.571C113.748 0.645996 118.858 7.39762 116.942 15.6546L89.6436 133.962C87.7275 142.219 79.5079 148.971 71.3311 148.971H12.7329C4.5557 148.971 -0.554317 142.219 1.3622 133.962L28.6596 15.6546C30.5761 7.35482 38.7529 0.645996 46.9297 0.645996H46.9725H46.9729Z" fill="#D10429"/>
<path d="M100.447 0.645996H167.865C176.041 0.645996 172.336 7.39762 170.42 15.6546L143.121 133.962C141.205 142.219 141.801 148.971 133.624 148.971H66.2112C57.992 148.971 52.924 142.219 54.8829 133.962L82.1815 15.6546C84.0976 7.35482 92.274 0.645996 100.494 0.645996H100.451H100.447Z" fill="#022E64"/>
<path d="M165.499 0.645996H224.101C232.278 0.645996 237.388 7.39762 235.471 15.6546L208.174 133.962C206.257 142.219 198.037 148.971 189.861 148.971H131.262C123.043 148.971 117.975 142.219 119.892 133.962L147.19 15.6546C149.106 7.35482 157.283 0.645996 165.46 0.645996H165.502H165.499Z" fill="#076F74"/>
<path d="M155.659 112.18H161.195L162.771 106.804H157.277L155.659 112.18ZM160.088 97.3851L158.171 103.75C158.171 103.75 160.258 102.675 161.408 102.331C162.558 102.073 164.261 101.858 164.261 101.858L165.581 97.4283H160.046L160.088 97.3851ZM162.856 88.2684L161.025 94.3751C161.025 94.3751 163.069 93.4286 164.219 93.1286C165.369 92.8274 167.072 92.7413 167.072 92.7413L168.392 88.3116H162.899L162.856 88.2684ZM175.079 88.2684L167.924 112.136H169.84L168.35 117.082H166.433L165.965 118.587H159.15L159.62 117.082H145.821L147.184 112.524H148.589L155.83 88.2688L157.278 83.3662H164.219L163.495 85.8173C163.495 85.8173 165.326 84.4843 167.115 84.0107C168.861 83.5382 178.912 83.3662 178.912 83.3662L177.421 88.226H175.036L175.079 88.2684Z" fill="#FEFEFE"/>
<path d="M177.919 83.3642H185.329L185.414 86.1593C185.372 86.6322 185.755 86.8474 186.649 86.8474H188.14L186.777 91.4496H182.773C179.324 91.7076 178.003 90.2026 178.089 88.5252L177.961 83.407L177.919 83.3642ZM178.831 105.258H171.761L172.953 101.172H181.045L182.195 97.4308H174.231L175.594 92.829H197.739L196.376 97.4308H188.924L187.774 101.172H195.226L193.991 105.258H185.942L184.494 106.978H187.773L188.582 112.139C188.668 112.655 188.668 112.999 188.838 113.214C189.008 113.386 189.988 113.472 190.541 113.472H191.521L189.988 118.504H187.475C187.092 118.504 186.495 118.461 185.686 118.461C184.92 118.375 184.409 117.945 183.898 117.687C183.429 117.472 182.748 116.912 182.578 115.923L181.811 110.763L178.149 115.837C176.998 117.428 175.424 118.676 172.74 118.676H167.63L168.992 114.203H170.951C171.505 114.203 172.016 113.988 172.4 113.773C172.783 113.601 173.123 113.429 173.464 112.87L178.831 105.258ZM101.503 94.0641H120.199L118.836 98.5798H111.384L110.234 102.407H117.9L116.494 107.052H108.871L106.997 113.287C106.785 113.975 108.829 114.061 109.553 114.061L113.385 113.545L111.852 118.706H103.249C102.569 118.706 102.057 118.62 101.29 118.448C100.566 118.276 100.226 117.932 99.9277 117.459C99.6289 116.943 99.1178 116.556 99.4586 115.437L101.929 107.181H97.67L99.0754 102.45H103.334L104.484 98.623H100.226L101.589 94.1069L101.503 94.0641ZM114.42 85.9013H122.086L120.681 90.5887H110.204L109.054 91.578C108.543 92.0512 108.416 91.8792 107.776 92.2233C107.181 92.5237 105.946 93.1258 104.327 93.1258H100.963L102.325 88.6104H103.348C104.199 88.6104 104.796 88.524 105.094 88.3524C105.434 88.1376 105.818 87.6643 106.201 86.8898L108.117 83.3638H115.74L114.42 85.9441V85.9013ZM128.868 93.6422C128.868 93.6422 130.954 91.7076 134.532 91.1055C135.341 90.9335 140.452 91.0187 140.452 91.0187L141.219 88.4384H130.444L128.868 93.6854L128.868 93.6422ZM139.004 95.6205H128.314L127.675 97.8135H136.96C138.067 97.6847 138.28 97.8563 138.365 97.7707L139.046 95.6205H139.004ZM125.121 83.407H131.636L130.7 86.7186C130.7 86.7186 132.744 85.0416 134.192 84.4391C135.64 83.923 138.876 83.407 138.876 83.407L149.438 83.3642L145.818 95.4917C145.222 97.5559 144.498 98.8893 144.072 99.5342C143.689 100.136 143.22 100.695 142.283 101.211C141.389 101.684 140.579 101.985 139.813 102.028C139.132 102.071 138.024 102.114 136.576 102.114H126.398L123.545 111.704C123.29 112.651 123.162 113.123 123.332 113.381C123.46 113.596 123.843 113.854 124.311 113.854L128.783 113.424L127.249 118.671H122.225C120.606 118.671 119.456 118.628 118.647 118.584C117.881 118.499 117.071 118.584 116.517 118.155C116.049 117.725 115.326 117.166 115.368 116.606C115.41 116.09 115.623 115.23 115.964 114.026L125.121 83.407Z" fill="#FEFEFE"/>
<path d="M144.107 102.706L143.511 105.63C143.256 106.533 143.042 107.221 142.361 107.824C141.637 108.426 140.828 109.07 138.869 109.07L135.25 109.242L135.207 112.511C135.164 113.413 135.42 113.327 135.548 113.499C135.718 113.671 135.846 113.715 136.016 113.801L137.166 113.714L140.616 113.543L139.167 118.359H135.207C132.439 118.359 130.352 118.273 129.713 117.757C129.032 117.327 128.947 116.811 128.947 115.864L129.202 103.049H135.548L135.462 105.672H136.995C137.506 105.672 137.89 105.629 138.103 105.5C138.315 105.371 138.444 105.156 138.529 104.855L139.167 102.791H144.15L144.107 102.706ZM53.8289 38.5068C53.6162 39.539 49.528 58.5041 49.528 58.5041C48.6333 62.3313 47.9946 65.0841 45.8654 66.8471C44.6303 67.8792 43.1822 68.3521 41.5216 68.3521C38.8384 68.3521 37.3054 67.0191 37.0499 64.482L37.0071 63.6219C37.0071 63.6219 37.8162 58.5041 37.8162 58.4613C37.8162 58.4613 42.0751 41.1732 42.8418 38.8937C42.8842 38.7649 42.8842 38.6789 42.8842 38.6356C34.5795 38.7221 33.0893 38.6356 33.0041 38.5068C32.9613 38.6789 32.7485 39.7538 32.7485 39.7538L28.4044 59.2358L28.0208 60.8696L27.2974 66.2887C27.2974 67.8796 27.5953 69.2126 28.2344 70.2879C30.2357 73.8144 35.9001 74.3304 39.094 74.3304C43.225 74.3304 47.1004 73.4271 49.698 71.8361C54.2549 69.1266 55.4471 64.8693 56.4693 61.128L56.9805 59.1926C56.9805 59.1926 61.367 41.2596 62.1337 38.9373C62.1761 38.8081 62.1761 38.7221 62.2189 38.6793C56.1714 38.7221 54.4253 38.6793 53.8289 38.5501V38.5068ZM78.1218 74.1551C75.183 74.1119 74.1184 74.1119 70.6689 74.2839L70.5409 74.0259C70.8389 72.6925 71.1796 71.4028 71.4352 70.0694L71.8611 68.2632C72.4998 65.4681 73.0961 62.1564 73.1813 61.1675C73.2665 60.5655 73.4365 59.0605 71.7331 59.0605C71.0092 59.0605 70.2854 59.4041 69.5191 59.7481C69.0927 61.2535 68.2836 65.4681 67.8577 67.3603C67.0058 71.4028 66.9635 71.8756 66.5803 73.8543L66.3248 74.1119C63.3012 74.0691 62.2366 74.0691 58.7443 74.2411L58.5739 73.9399C59.1702 71.5316 59.7237 69.1233 60.2777 66.715C61.7254 60.221 62.109 57.7271 62.4917 54.4155L62.7901 54.2435C66.1972 53.7706 67.0062 53.6414 70.7113 52.9105L71.0092 53.2546L70.4557 55.3188C71.0944 54.932 71.6907 54.5447 72.3294 54.2435C74.0756 53.3834 75.9921 53.1253 77.0567 53.1253C78.6749 53.1253 80.4638 53.5986 81.1877 55.4908C81.8692 57.1678 81.4428 59.2321 80.5062 63.3178L80.0379 65.382C79.1008 69.9406 78.9308 70.7575 78.4193 73.8539L78.079 74.1119L78.1218 74.1551ZM90.0797 74.1662C88.2912 74.1662 87.1413 74.1234 86.0343 74.1662C84.9269 74.1662 83.8623 74.2527 82.2013 74.2955L82.1161 74.1662L82.0309 73.9942C82.4992 72.274 82.7124 71.6719 82.968 71.0699C83.1808 70.4678 83.3935 69.8657 83.8199 68.1027C84.3306 65.8232 84.6713 64.2322 84.8841 62.8128C85.1397 61.4795 85.2676 60.3189 85.438 58.9856L85.5656 58.8996L85.6932 58.7708C87.4821 58.5127 88.5895 58.3407 89.7394 58.1687C90.8892 57.9967 92.0814 57.7818 93.9127 57.4378L93.9979 57.6098L94.0403 57.7818L93.0189 62.0392C92.6781 63.4585 92.3374 64.8775 92.0394 66.2969C91.3999 69.3072 91.1024 70.4254 90.9748 71.2423C90.8044 72.0164 90.7612 72.4036 90.5056 73.9518L90.3353 74.0806L90.1649 74.2099L90.0797 74.1662ZM108.986 63.6001C108.859 64.3742 108.177 67.2558 107.283 68.4599C106.644 69.3628 105.92 69.9221 105.068 69.9221C104.813 69.9221 103.364 69.9221 103.322 67.7286C103.322 66.6537 103.535 65.5351 103.791 64.3314C104.557 60.8478 105.495 57.9666 107.837 57.9666C109.668 57.9666 109.795 60.1169 108.986 63.6001ZM116.694 63.9441C117.716 59.3856 116.908 57.2353 115.928 55.9452C114.395 53.9669 111.67 53.322 108.859 53.322C107.155 53.322 103.152 53.4941 100.001 56.4184C97.7437 58.5255 96.6791 61.407 96.0827 64.1594C95.4432 66.9545 94.7197 71.9863 99.319 73.8786C100.724 74.4806 102.769 74.6523 104.089 74.6523C107.453 74.6523 110.903 73.7065 113.501 70.9542C115.502 68.7179 116.396 65.3635 116.737 63.9441H116.694ZM188.478 74.6769C184.901 74.6341 183.879 74.6341 180.599 74.8062L180.386 74.5481C181.281 71.1505 182.175 67.7101 182.984 64.2697C184.006 59.7971 184.261 57.9049 184.602 55.2818L184.858 55.067C188.393 54.5509 189.372 54.4221 193.077 53.734L193.162 54.0348C192.481 56.8732 191.842 59.6687 191.161 62.4639C189.798 68.3558 189.329 71.3662 188.819 74.4625L188.478 74.7206V74.6769Z" fill="#FEFEFE"/>
<path d="M183.335 64.1744C183.164 64.9053 182.483 67.8296 181.588 69.0338C180.992 69.8939 179.544 70.4531 178.735 70.4531C178.48 70.4531 177.074 70.4531 176.989 68.3029C176.989 67.2275 177.202 66.1094 177.458 64.9053C178.224 61.508 179.162 58.6265 181.503 58.6265C183.335 58.6265 184.144 60.7335 183.335 64.2172V64.1744ZM190.362 64.5184C191.383 59.9599 187.21 64.1316 186.571 62.6262C185.549 60.2607 186.187 55.5301 182.1 53.9391C180.524 53.2938 176.819 54.1111 173.667 57.0355C171.453 59.0998 170.345 61.9809 169.749 64.7332C169.11 67.4856 168.386 72.5606 172.943 74.3236C174.392 74.9685 175.711 75.1405 177.032 75.0545C181.632 74.7965 185.123 67.7864 187.722 65.0341C189.722 62.841 190.063 65.8514 190.362 64.5184ZM136.887 74.1536C133.949 74.1104 132.926 74.1104 129.477 74.2825L129.349 74.0244C129.647 72.6911 129.988 71.4013 130.285 70.0679L130.669 68.2617C131.308 65.4666 131.946 62.155 131.989 61.1661C132.074 60.564 132.244 59.059 130.583 59.059C129.86 59.059 129.094 59.4026 128.369 59.7467C127.986 61.2521 127.134 65.4666 126.708 67.3588C125.899 71.4013 125.814 71.8742 125.431 73.8528L125.175 74.1104C122.151 74.0676 121.087 74.0676 117.595 74.2397L117.424 73.9384C118.021 71.5301 118.574 69.1218 119.128 66.7135C120.576 60.2195 120.917 57.7256 121.342 54.414L121.598 54.242C125.005 53.7692 125.857 53.6399 129.519 52.909L129.818 53.2531L129.306 55.3173C129.903 54.9305 130.541 54.5432 131.138 54.242C132.884 53.3819 134.8 53.1239 135.864 53.1239C137.483 53.1239 139.229 53.5971 139.995 55.4894C140.677 57.1664 140.209 59.2306 139.271 63.3163L138.803 65.3806C137.824 69.9391 137.696 70.756 137.184 73.8524L136.844 74.1104L136.887 74.1536ZM162.402 38.5482L159.932 38.5914C153.544 38.6774 150.989 38.6342 149.967 38.5054C149.882 38.9786 149.711 39.7955 149.711 39.7955C149.711 39.7955 147.412 50.4608 147.412 50.5036C147.412 50.5036 141.961 73.2104 141.705 74.2853C147.284 74.1993 149.541 74.1993 150.521 74.3286C150.734 73.2532 152.011 66.9316 152.054 66.9316C152.054 66.9316 153.161 62.2871 153.204 62.1151C153.204 62.1151 153.544 61.6418 153.885 61.427H154.396C159.208 61.427 164.617 61.427 168.876 58.2878C171.772 56.1375 173.731 52.9119 174.625 49.0415C174.838 48.0953 175.008 46.9772 175.008 45.8163C175.008 44.3109 174.711 42.8491 173.859 41.6878C171.686 38.6342 167.385 38.5914 162.402 38.5482ZM165.596 49.6867C165.086 52.0518 163.552 54.0733 161.593 55.0194C159.975 55.8363 158.016 55.9223 155.972 55.9223H154.652L154.737 55.4062C154.737 55.4062 157.164 44.7409 157.164 44.7841L157.249 44.2249L157.292 43.7948L158.271 43.8812C158.271 43.8812 163.297 44.3109 163.382 44.3109C165.34 45.085 166.193 47.0632 165.596 49.6867ZM217.947 53.2531L217.65 52.909C214.03 53.6399 213.348 53.7692 210.026 54.2424L209.772 54.5C209.772 54.5432 209.729 54.5865 209.729 54.6721V54.6293C207.259 60.4348 207.301 59.1878 205.3 63.7464C205.3 63.5311 205.3 63.4023 205.257 63.1871L204.745 53.2959L204.448 52.9518C200.615 53.6831 200.53 53.812 197.037 54.2852L196.782 54.5433C196.739 54.6721 196.739 54.8013 196.739 54.9301L196.782 54.9733C197.208 57.2524 197.123 56.7363 197.549 60.306C197.761 62.069 198.017 63.8324 198.23 65.5526C198.57 68.477 198.784 69.8959 199.21 74.3257C196.824 78.2817 196.27 79.7871 193.971 83.2699L194.099 83.614C197.549 83.4856 198.315 83.4856 200.87 83.4856L201.424 82.8403C203.34 78.6694 217.991 53.2963 217.991 53.2963L217.947 53.2531ZM93.368 56.1017C95.3269 54.7256 95.5821 52.8333 93.9215 51.8444C92.2606 50.8551 89.3222 51.1563 87.3629 52.5325C85.404 53.8659 85.1912 55.7577 86.8522 56.7898C88.4703 57.7363 91.4087 57.4779 93.368 56.1017Z" fill="#FEFEFE"/>
<path d="M200.858 83.4091L198.004 88.3553C197.109 90.0323 195.406 91.3225 192.766 91.3225L188.209 91.2365L189.529 86.7639H190.423C190.891 86.7639 191.232 86.7211 191.488 86.5919C191.743 86.5059 191.872 86.3339 192.084 86.0758L193.788 83.3667H200.9L200.858 83.4091Z" fill="#FEFEFE"/>
</svg>
