<svg width="198" height="152" viewBox="0 0 198 152" fill="none" xmlns="http://www.w3.org/2000/svg">
<path d="M185.229 122.723C185.229 138.193 172.629 150.79 157.154 150.79H4.39734V39.6252C4.39734 24.1549 16.9981 11.5576 32.4727 11.5576H185.229V122.723Z" fill="white"/>
<path d="M135.49 94.2132H147.095C147.427 94.2132 148.201 94.1027 148.532 94.1027C150.743 93.6607 152.622 91.6716 152.622 88.9091C152.622 86.257 150.743 84.268 148.532 83.7155C148.201 83.605 147.538 83.605 147.095 83.605H135.49V94.2132Z" fill="url(#paint0_linear_406_341)"/>
<path d="M145.769 20.9502C134.716 20.9502 125.652 29.9009 125.652 41.0616V61.9465H154.059C154.722 61.9465 155.496 61.9465 156.049 62.057C162.46 62.3885 167.212 65.7036 167.212 71.4497C167.212 75.9803 164.007 79.8479 158.038 80.6214V80.8424C164.56 81.2844 169.534 84.931 169.534 90.5666C169.534 96.6442 164.007 100.622 156.712 100.622H125.542V141.508H155.054C166.107 141.508 175.171 132.557 175.171 121.397V20.9502H145.769Z" fill="url(#paint1_linear_406_341)"/>
<path d="M151.185 72.7757C151.185 70.1236 149.306 68.3556 147.095 68.0241C146.874 68.0241 146.322 67.9136 145.99 67.9136H135.49V77.6378H145.99C146.322 77.6378 146.985 77.6378 147.095 77.5273C149.306 77.1958 151.185 75.4277 151.185 72.7757Z" fill="url(#paint2_linear_406_341)"/>
<path d="M34.5729 20.9502C23.5196 20.9502 14.4559 29.9009 14.4559 41.0616V90.6771C20.0931 93.4396 25.9513 95.2077 31.8095 95.2077C38.7731 95.2077 42.5312 91.0086 42.5312 85.2625V61.836H59.7744V85.152C59.7744 94.2132 54.1372 101.617 35.015 101.617C23.409 101.617 14.3453 99.0752 14.3453 99.0752V141.398H43.8576C54.9109 141.398 63.9747 132.447 63.9747 121.286V20.9502H34.5729Z" fill="url(#paint3_linear_406_341)"/>
<path d="M90.171 20.9502C79.1177 20.9502 70.054 29.9009 70.054 41.0616V67.3611C75.1385 63.0515 83.9811 60.289 98.2399 60.952C105.867 61.2835 114.046 63.383 114.046 63.383V71.8917C109.956 69.7922 105.093 67.9136 98.7925 67.4716C87.9603 66.6981 81.4389 72.0022 81.4389 81.2844C81.4389 90.6771 87.9603 95.9812 98.7925 95.0972C105.093 94.6552 109.956 92.6661 114.046 90.6771V99.1858C114.046 99.1858 105.977 101.285 98.2399 101.617C83.9811 102.28 75.1385 99.5173 70.054 95.2077V141.619H99.5663C110.62 141.619 119.683 132.668 119.683 121.507V20.9502H90.171Z" fill="url(#paint4_linear_406_341)"/>
<defs>
<linearGradient id="paint0_linear_406_341" x1="125.634" y1="88.9223" x2="175.304" y2="88.9223" gradientUnits="userSpaceOnUse">
<stop stop-color="#007940"/>
<stop offset="0.2285" stop-color="#00873F"/>
<stop offset="0.7433" stop-color="#40A737"/>
<stop offset="1" stop-color="#5CB531"/>
</linearGradient>
<linearGradient id="paint1_linear_406_341" x1="125.632" y1="81.1809" x2="175.307" y2="81.1809" gradientUnits="userSpaceOnUse">
<stop stop-color="#007940"/>
<stop offset="0.2285" stop-color="#00873F"/>
<stop offset="0.7433" stop-color="#40A737"/>
<stop offset="1" stop-color="#5CB531"/>
</linearGradient>
<linearGradient id="paint2_linear_406_341" x1="125.632" y1="72.7618" x2="175.305" y2="72.7618" gradientUnits="userSpaceOnUse">
<stop stop-color="#007940"/>
<stop offset="0.2285" stop-color="#00873F"/>
<stop offset="0.7433" stop-color="#40A737"/>
<stop offset="1" stop-color="#5CB531"/>
</linearGradient>
<linearGradient id="paint3_linear_406_341" x1="14.4325" y1="81.1809" x2="64.872" y2="81.1809" gradientUnits="userSpaceOnUse">
<stop stop-color="#1F286F"/>
<stop offset="0.4751" stop-color="#004E94"/>
<stop offset="0.8261" stop-color="#0066B1"/>
<stop offset="1" stop-color="#006FBC"/>
</linearGradient>
<linearGradient id="paint4_linear_406_341" x1="69.7682" y1="81.1809" x2="118.757" y2="81.1809" gradientUnits="userSpaceOnUse">
<stop stop-color="#6C2C2F"/>
<stop offset="0.1735" stop-color="#882730"/>
<stop offset="0.5731" stop-color="#BE1833"/>
<stop offset="0.8585" stop-color="#DC0436"/>
<stop offset="1" stop-color="#E60039"/>
</linearGradient>
</defs>
</svg>
