<svg width="237" height="149" viewBox="0 0 237 149" fill="none" xmlns="http://www.w3.org/2000/svg">
<g clip-path="url(#clip0_406_364)">
<path d="M16.2516 0.645996H226.907C233.856 0.645996 239.484 6.2764 239.484 13.2279V136.216C239.484 143.168 233.856 148.798 226.907 148.798H16.2516C9.30314 148.798 3.67517 143.168 3.67517 136.216V13.2279C3.67517 6.2764 9.30314 0.645996 16.2516 0.645996Z" fill="black"/>
<path d="M51.057 54.3081C53.195 53.5846 55.4902 53.2072 57.8797 53.2072C68.3182 53.2072 77.0274 60.6305 79.0082 70.4759L93.7856 67.4562C90.3899 50.7223 75.6126 38.1089 57.8797 38.1089C53.8238 38.1089 49.9251 38.7694 46.278 39.9962L51.057 54.3081Z" fill="#FFF100"/>
<path d="M33.6072 102.245L43.6055 90.9211C39.1408 86.9578 36.3426 81.2015 36.3426 74.7533C36.3426 68.3365 39.1408 62.5488 43.6055 58.617L33.6072 47.3247C26.0299 54.056 21.2508 63.8385 21.2508 74.7847C21.2508 85.6996 26.0299 95.5135 33.6072 102.245Z" fill="#00A3DF"/>
<path d="M79.0082 79.0942C76.996 88.9396 68.3182 96.3315 57.8798 96.3315C55.4902 96.3315 53.195 95.954 51.0256 95.2306L46.2465 109.542C49.8937 110.769 53.8238 111.43 57.8798 111.43C75.6126 111.43 90.3899 98.8479 93.7856 82.1139L79.0082 79.0942Z" fill="#EE4023"/>
<path d="M143.022 89.2228C140.57 91.6133 137.269 93.0603 133.622 92.9974C131.106 92.9659 128.78 92.211 126.83 90.9528L121.925 98.7536C125.29 100.861 129.22 102.119 133.496 102.182C139.69 102.277 145.349 99.8231 149.468 95.8283L143.022 89.2228ZM134.156 57.422C121.831 57.2333 111.644 67.1101 111.456 79.4403C111.393 84.0642 112.713 88.405 115.071 91.9908L155.567 74.6592C153.304 64.9397 144.626 57.6107 134.156 57.422ZM120.731 81.2018C120.668 80.6985 120.636 80.1638 120.636 79.6291C120.762 72.363 126.736 66.5439 133.999 66.6697C137.96 66.7326 141.482 68.5255 143.84 71.3565L120.731 81.2018ZM168.301 47.3564V90.5439L175.784 93.6579L172.231 102.182L164.811 99.0996C163.145 98.3761 162.013 97.2752 161.164 96.017C160.347 94.7588 159.718 92.9974 159.718 90.6697V47.3564H168.301Z" fill="white"/>
<path d="M195.309 67.3304C196.63 66.8901 198.013 66.6699 199.491 66.6699C205.873 66.6699 211.155 71.1994 212.382 77.2072L221.405 75.3514C219.33 65.1286 210.307 57.4536 199.491 57.4536C197.007 57.4536 194.617 57.8625 192.417 58.586L195.309 67.3304ZM184.651 96.5519L190.75 89.6633C188.015 87.2413 186.317 83.7184 186.317 79.7865C186.317 75.8547 188.046 72.3317 190.75 69.9412L184.651 63.0526C180.029 67.1417 177.105 73.1496 177.105 79.818C177.105 86.4864 180.029 92.4628 184.651 96.5519ZM212.382 82.4602C211.155 88.468 205.842 92.9975 199.491 92.9975C198.044 92.9975 196.63 92.7459 195.309 92.3055L192.385 101.05C194.617 101.805 197.007 102.214 199.491 102.214C210.307 102.214 219.33 94.5388 221.405 84.316L212.382 82.4602Z" fill="white"/>
</g>
<defs>
<clipPath id="clip0_406_364">
<rect width="235.809" height="148.152" fill="white" transform="translate(0.794434 0.645996)"/>
</clipPath>
</defs>
</svg>
