<svg width="384" height="130" viewBox="0 0 384 130" fill="none" xmlns="http://www.w3.org/2000/svg">
<path d="M21.0624 8.46826L0.306641 56.7264H13.8197L17.6494 47.0629H39.9132L43.7231 56.7264H57.5338L36.7979 8.46826H21.0624ZM28.7416 19.6994L35.5279 36.5858H21.9355L28.7416 19.6994Z" fill="#016FD0"/>
<path d="M58.9629 56.7181V8.45996L78.1657 8.5313L89.3347 39.6451L100.236 8.45996H119.286V56.7181H107.221V21.1595L94.4324 56.7181H83.8518L71.0274 21.1595V56.7181H58.9629Z" fill="#016FD0"/>
<path d="M127.54 56.7181V8.45996H166.909V19.2546H139.732V27.5092H166.274V37.6689H139.732V46.241H166.909V56.7181H127.54Z" fill="#016FD0"/>
<path d="M173.893 8.46826V56.7264H185.958V39.5821H191.037L205.503 56.7264H220.246L204.372 38.9471C210.887 38.3974 217.607 32.8057 217.607 24.1244C217.607 13.9692 209.636 8.46826 200.741 8.46826H173.893ZM185.958 19.2628H199.748C203.057 19.2628 205.463 21.8506 205.463 24.3427C205.463 27.5487 202.345 29.4225 199.927 29.4225H185.958V19.2628Z" fill="#016FD0"/>
<path d="M234.851 56.7181H222.532V8.45996H234.851V56.7181Z" fill="#016FD0"/>
<path d="M264.06 56.7181H261.401C248.536 56.7181 240.724 46.5824 240.724 32.7875C240.724 18.6518 248.448 8.45996 264.695 8.45996H278.029V19.8895H264.207C257.612 19.8895 252.948 25.0364 252.948 32.9065C252.948 42.2523 258.281 46.1775 265.965 46.1775H269.14L264.06 56.7181Z" fill="#016FD0"/>
<path d="M290.312 8.46826L269.556 56.7264H283.069L286.899 47.0629H309.163L312.973 56.7264H326.783L306.047 8.46826H290.312ZM297.991 19.6994L304.777 36.5858H291.185L297.991 19.6994Z" fill="#016FD0"/>
<path d="M328.192 56.7181V8.45996H343.531L363.116 38.7801V8.45996H375.181V56.7181H360.338L340.257 25.6043V56.7181H328.192Z" fill="#016FD0"/>
<path d="M51.6931 121.215V72.957H91.0616V83.7517H63.8846V92.0063H90.4266V102.166H63.8846V110.738H91.0616V121.215H51.6931Z" fill="#016FD0"/>
<path d="M244.599 121.215V72.957H283.967V83.7517H256.79V92.0063H283.205V102.166H256.79V110.738H283.967V121.215H244.599Z" fill="#016FD0"/>
<path d="M92.5894 121.215L111.758 97.3838L92.1331 72.957H107.333L119.02 88.0575L130.748 72.957H145.352L125.985 97.0861L145.189 121.215H129.991L118.643 106.353L107.571 121.215H92.5894Z" fill="#016FD0"/>
<path d="M146.622 72.9648V121.223H159.004V105.984H171.704C182.449 105.984 190.594 100.283 190.594 89.1964C190.594 80.0125 184.206 72.9648 173.271 72.9648H146.622ZM159.004 83.8785H172.378C175.85 83.8785 178.331 86.0062 178.331 89.4345C178.331 92.6553 175.862 94.9905 172.339 94.9905H159.004V83.8785Z" fill="#016FD0"/>
<path d="M195.833 72.957V121.215H207.897V104.071H212.977L227.443 121.215H242.186L226.312 103.436C232.827 102.886 239.547 97.2944 239.547 88.6131C239.547 78.458 231.576 72.957 222.68 72.957H195.833ZM207.897 83.7517H221.688C224.996 83.7517 227.403 86.3394 227.403 88.8314C227.403 92.0375 224.285 93.9112 221.867 93.9112H207.897V83.7517Z" fill="#016FD0"/>
<path d="M289.555 121.215V110.738H313.7C317.273 110.738 318.82 108.808 318.82 106.69C318.82 104.661 317.278 102.61 313.7 102.61H302.789C293.305 102.61 288.023 96.8321 288.023 88.1568C288.023 80.419 292.86 72.957 306.953 72.957H330.448L325.368 83.8151H305.048C301.164 83.8151 299.969 85.8533 299.969 87.7996C299.969 89.8002 301.446 92.0063 304.414 92.0063H315.843C326.415 92.0063 331.003 98.0033 331.003 105.857C331.003 114.3 325.891 121.215 315.268 121.215H289.555Z" fill="#016FD0"/>
<path d="M333.835 121.215V110.738H357.98C361.552 110.738 363.099 108.808 363.099 106.69C363.099 104.661 361.557 102.61 357.98 102.61H347.069C337.585 102.61 332.303 96.8321 332.303 88.1568C332.303 80.419 337.14 72.957 351.233 72.957H374.727L369.647 83.8151H349.328C345.444 83.8151 344.248 85.8533 344.248 87.7996C344.248 89.8002 345.726 92.0063 348.693 92.0063H360.123C370.695 92.0063 375.283 98.0033 375.283 105.857C375.283 114.3 370.171 121.215 359.547 121.215H333.835Z" fill="#016FD0"/>
</svg>
