<svg width="216" height="134" viewBox="0 0 216 134" fill="none" xmlns="http://www.w3.org/2000/svg">
<path d="M137.068 14.6763H78.9341V119.12H137.068V14.6763Z" fill="#FF5A00"/>
<path d="M82.8039 66.898C82.8039 45.6783 92.7796 26.8449 108.087 14.6763C96.8214 5.81865 82.6104 0.465332 67.1095 0.465332C30.3887 0.465332 0.676758 30.1773 0.676758 66.898C0.676758 103.619 30.3887 133.331 67.1095 133.331C82.6104 133.331 96.8214 127.977 108.087 119.12C92.7581 107.123 82.8039 88.1178 82.8039 66.898Z" fill="#EB001B"/>
<path d="M215.497 66.898C215.497 103.619 185.785 133.331 149.065 133.331C133.564 133.331 119.353 127.977 108.087 119.12C123.588 106.93 133.37 88.1178 133.37 66.898C133.37 45.6783 123.394 26.8449 108.087 14.6763C119.331 5.81865 133.542 0.465332 149.043 0.465332C185.785 0.465332 215.497 30.3708 215.497 66.898Z" fill="#F79E1B"/>
</svg>
