<svg width="100" height="100" viewBox="0 0 100 100" fill="none" xmlns="http://www.w3.org/2000/svg">
<path d="M95.8337 33.3334V75.0001C95.8337 79.5834 92.0837 83.3334 87.5003 83.3334H20.8337C18.542 83.3334 16.667 81.4584 16.667 79.1668C16.667 76.8751 18.542 75.0001 20.8337 75.0001H87.5003V33.3334C87.5003 31.0417 89.3753 29.1667 91.667 29.1667C93.9587 29.1667 95.8337 31.0417 95.8337 33.3334ZM16.667 66.6668C9.75033 66.6668 4.16699 61.0834 4.16699 54.1668V29.1667C4.16699 22.2501 9.75033 16.6667 16.667 16.6667H66.667C73.5837 16.6667 79.167 22.2501 79.167 29.1667V58.3334C79.167 62.9168 75.417 66.6668 70.8337 66.6668H16.667ZM29.167 41.6667C29.167 48.5834 34.7503 54.1668 41.667 54.1668C48.5837 54.1668 54.167 48.5834 54.167 41.6667C54.167 34.7501 48.5837 29.1667 41.667 29.1667C34.7503 29.1667 29.167 34.7501 29.167 41.6667Z" fill="#2B61D1"/>
</svg>
