<svg width="100" height="100" viewBox="0 0 100 100" fill="none" xmlns="http://www.w3.org/2000/svg">
<path d="M54.1713 15.3774V15.4607C54.1713 18.2524 56.0463 20.5857 58.6713 21.4191C70.5463 25.1274 79.1713 36.1691 79.1713 49.2524C79.1713 51.4191 78.9213 53.4607 78.4629 55.4607C77.8796 58.1274 78.9629 60.8774 81.3379 62.2941L81.3796 62.3358C84.963 64.4191 89.6296 62.5441 90.5879 58.5441C91.2963 55.5441 91.6713 52.4191 91.6713 49.2524C91.6713 30.5024 79.2546 14.5857 62.1713 9.37741C58.2129 8.16908 54.1713 11.2107 54.1713 15.3774ZM45.5879 78.0857C33.1296 76.2941 23.0046 66.1691 21.1713 53.7524C18.9213 38.7524 28.0879 25.5441 41.2963 21.4191C43.9629 20.6274 45.8379 18.2524 45.8379 15.4607V15.3774C45.8379 11.2107 41.7963 8.16908 37.7963 9.37741C19.0046 15.1274 5.8796 33.7941 8.71294 55.0441C11.1713 73.2941 25.9213 88.0441 44.1713 90.5024C57.2546 92.2524 69.3379 87.9608 78.0463 79.9608C81.1296 77.1274 80.5879 72.0857 76.9629 70.0024C74.5463 68.5857 71.5463 69.0441 69.4629 70.9191C63.3379 76.5024 54.8379 79.4607 45.5879 78.0857Z" fill="#2B61D1"/>
</svg>
