<svg width="100" height="100" viewBox="0 0 100 100" fill="none" xmlns="http://www.w3.org/2000/svg">
<path fill-rule="evenodd" clip-rule="evenodd" d="M52.1488 9.04085C50.9436 7.89947 49.0564 7.89947 47.8512 9.04085C39.448 16.9991 28.1093 21.8754 15.625 21.8754C15.4264 21.8754 15.228 21.8742 15.03 21.8717C13.666 21.8548 12.4486 22.7246 12.0226 24.0205C10.3036 29.2486 9.375 34.8318 9.375 40.6256C9.375 65.384 26.3086 86.1795 49.2211 92.0768C49.732 92.2083 50.268 92.2083 50.7789 92.0768C73.6914 86.1795 90.625 65.384 90.625 40.6256C90.625 34.8318 89.6964 29.2486 87.9774 24.0205C87.5514 22.7246 86.334 21.8548 84.97 21.8717C84.772 21.8742 84.5736 21.8754 84.375 21.8754C71.8907 21.8754 60.552 16.9991 52.1488 9.04085ZM65.0429 42.4414C66.0461 41.037 65.7208 39.0852 64.3164 38.0821C62.912 37.0789 60.9602 37.4042 59.9571 38.8086L46.4762 57.6818L39.7097 50.9153C38.4893 49.6949 36.5107 49.6949 35.2903 50.9153C34.0699 52.1357 34.0699 54.1143 35.2903 55.3347L44.6653 64.7097C45.3148 65.3593 46.2173 65.6901 47.1328 65.6144C48.0482 65.5386 48.884 65.0639 49.4179 64.3164L65.0429 42.4414Z" fill="#2B61D1"/>
</svg>
