<svg width="100" height="100" viewBox="0 0 100 100" fill="none" xmlns="http://www.w3.org/2000/svg">
<path d="M50.0003 8.41675C27.042 8.41675 8.41699 27.0417 8.41699 50.0001C8.41699 72.9584 27.042 91.5834 50.0003 91.5834C72.9587 91.5834 91.5836 72.9584 91.5836 50.0001C91.5836 27.0417 72.9587 8.41675 50.0003 8.41675ZM47.8337 74.5001V57.2501H36.7503C35.2087 57.2501 34.167 55.5834 34.917 54.2084L50.2503 24.3334C51.2087 22.3751 54.167 23.0834 54.167 25.2917V42.7501H64.7503C66.292 42.7501 67.292 44.3751 66.6253 45.7501L51.792 75.4167C50.792 77.4167 47.8337 76.7084 47.8337 74.5001Z" fill="#2B61D1"/>
</svg>
