<svg width="56" height="51" viewBox="0 0 56 51" fill="none" xmlns="http://www.w3.org/2000/svg">
<path d="M14.7164 29.4C16.9831 30.0667 18.7164 31.3333 19.9164 33.2C21.2497 34.9333 21.9164 37.0667 21.9164 39.6C21.9164 42.8 20.9164 45.4 18.9164 47.4C16.9164 49.4 14.4497 50.4 11.5164 50.4C8.31641 50.4 5.71641 49.4 3.71641 47.4C1.84974 45.2667 0.916407 42.6667 0.916407 39.6C0.916407 38 1.04974 36.4667 1.31641 35C1.71641 33.4 2.44974 31.1333 3.51641 28.2L11.9164 0.599991H21.5164L14.7164 29.4ZM48.7164 29.4C50.9831 30.0667 52.7164 31.3333 53.9164 33.2C55.2497 34.9333 55.9164 37.0667 55.9164 39.6C55.9164 42.8 54.9164 45.4 52.9164 47.4C50.9164 49.4 48.4497 50.4 45.5164 50.4C42.3164 50.4 39.7164 49.4 37.7164 47.4C35.8497 45.2667 34.9164 42.6667 34.9164 39.6C34.9164 38 35.0497 36.4667 35.3164 35C35.7164 33.4 36.4497 31.1333 37.5164 28.2L45.9164 0.599991H55.5164L48.7164 29.4Z" fill="#98A7B9"/>
</svg>
