<svg width="60" height="60" viewBox="0 0 60 60" fill="none" xmlns="http://www.w3.org/2000/svg">
<path d="M13.8077 19.0679H1.89286C1.63898 19.0679 1.3955 19.1689 1.21598 19.3488C1.03646 19.5287 0.935608 19.7727 0.935608 20.0271V58.3832C0.935608 58.6376 1.03646 58.8816 1.21598 59.0615C1.3955 59.2414 1.63898 59.3425 1.89286 59.3425H13.8077C14.0616 59.3425 14.305 59.2414 14.4846 59.0615C14.6641 58.8816 14.7649 58.6376 14.7649 58.3832V20.0271C14.7649 19.7727 14.6641 19.5287 14.4846 19.3488C14.305 19.1689 14.0616 19.0679 13.8077 19.0679Z" fill="#9C9DAC"/>
<path d="M7.85455 0C6.3009 0.000129892 4.78217 0.461936 3.49044 1.32702C2.19871 2.1921 1.19199 3.4216 0.5976 4.86003C0.00320742 6.29846 -0.152163 7.88121 0.151139 9.40813C0.45444 10.9351 1.20279 12.3376 2.30155 13.4383C3.40031 14.539 4.80013 15.2885 6.32398 15.592C7.84783 15.8954 9.42726 15.7393 10.8625 15.1432C12.2978 14.5472 13.5245 13.538 14.3874 12.2434C15.2503 10.9487 15.7107 9.42671 15.7104 7.86984C15.7069 5.78329 14.8781 3.78324 13.4055 2.30805C11.9329 0.832852 9.93678 0.00286455 7.85455 0Z" fill="#9C9DAC"/>
<path d="M44.1135 18.1138C39.3282 18.1138 35.7908 20.175 33.645 22.5176V20.0263C33.645 19.7719 33.5442 19.5279 33.3647 19.348C33.1851 19.1682 32.9417 19.0671 32.6878 19.0671H21.2781C21.0242 19.0671 20.7808 19.1682 20.6012 19.348C20.4217 19.5279 20.3209 19.7719 20.3209 20.0263V58.3825C20.3209 58.6369 20.4217 58.8808 20.6012 59.0607C20.7808 59.2406 21.0242 59.3417 21.2781 59.3417H33.1667C33.4206 59.3417 33.6641 59.2406 33.8436 59.0607C34.0231 58.8808 34.124 58.6369 34.124 58.3825V39.405C34.124 33.0101 35.8573 30.5188 40.3061 30.5188C45.151 30.5188 45.5359 34.5126 45.5359 39.7342V58.3828C45.5359 58.6372 45.6368 58.8812 45.8163 59.0611C45.9958 59.241 46.2393 59.342 46.4932 59.342H58.3851C58.639 59.342 58.8824 59.241 59.062 59.0611C59.2415 58.8812 59.3423 58.6372 59.3423 58.3828V37.3437C59.343 27.8344 57.5333 18.1138 44.1135 18.1138Z" fill="#9C9DAC"/>
</svg>
